<svg width="684" height="360" viewBox="0 0 684 360" fill="none" xmlns="http://www.w3.org/2000/svg">
<path d="M273 301C276.5 298 173.167 249 121.5 227L232.5 159L152.5 186.5L179.5 164.5L331.5 89.5V269C312 280.167 273 302.2 273 301Z" fill="#3B7D72"/>
<path d="M24.5 282.5L106 238L258 310L167 359.5L24.5 282.5Z" fill="#3B7D72"/>
<path d="M223.5 119.5L305 73.5L164 0.5L80.5 48L223.5 119.5Z" fill="#D1AD52"/>
<path d="M0 90.5L55.5 58.5L203 130.5L102 196L178.5 165.5L152.5 187L0 268V90.5Z" fill="#A03A36"/>
<path d="M401.552 227.024C394.811 227.024 388.283 226 381.968 223.952C375.739 221.819 370.832 219.088 367.248 215.76L371.984 205.776C375.397 208.848 379.749 211.365 385.04 213.328C390.416 215.205 395.92 216.144 401.552 216.144C408.976 216.144 414.523 214.907 418.192 212.432C421.861 209.872 423.696 206.501 423.696 202.32C423.696 199.248 422.672 196.773 420.624 194.896C418.661 192.933 416.187 191.44 413.2 190.416C410.299 189.392 406.16 188.24 400.784 186.96C394.043 185.339 388.581 183.717 384.4 182.096C380.304 180.475 376.763 178 373.776 174.672C370.875 171.259 369.424 166.693 369.424 160.976C369.424 156.197 370.661 151.888 373.136 148.048C375.696 144.208 379.536 141.136 384.656 138.832C389.776 136.528 396.133 135.376 403.728 135.376C409.019 135.376 414.224 136.059 419.344 137.424C424.464 138.789 428.859 140.752 432.528 143.312L428.304 153.552C424.549 151.163 420.539 149.371 416.272 148.176C412.005 146.896 407.824 146.256 403.728 146.256C396.475 146.256 391.013 147.579 387.344 150.224C383.76 152.869 381.968 156.283 381.968 160.464C381.968 163.536 382.992 166.053 385.04 168.016C387.088 169.893 389.605 171.387 392.592 172.496C395.664 173.52 399.803 174.629 405.008 175.824C411.749 177.445 417.168 179.067 421.264 180.688C425.36 182.309 428.859 184.784 431.76 188.112C434.747 191.44 436.24 195.92 436.24 201.552C436.24 206.245 434.96 210.555 432.4 214.48C429.84 218.32 425.957 221.392 420.752 223.696C415.547 225.915 409.147 227.024 401.552 227.024ZM497.82 216.016C505.927 216.016 512.455 213.285 517.404 207.824L524.06 215.76C521.073 219.344 517.276 222.075 512.668 223.952C508.145 225.829 503.068 226.768 497.436 226.768C490.268 226.768 483.911 225.317 478.364 222.416C472.817 219.429 468.508 215.291 465.436 210C462.449 204.709 460.956 198.736 460.956 192.08C460.956 185.509 462.407 179.579 465.308 174.288C468.295 168.997 472.348 164.901 477.468 162C482.673 159.013 488.519 157.52 495.004 157.52C501.148 157.52 506.737 158.928 511.772 161.744C516.807 164.475 520.817 168.357 523.804 173.392C526.791 178.427 528.327 184.229 528.412 190.8L474.524 201.296C476.231 205.989 479.089 209.616 483.1 212.176C487.196 214.736 492.103 216.016 497.82 216.016ZM495.004 167.888C490.737 167.888 486.897 168.869 483.484 170.832C480.156 172.795 477.553 175.568 475.676 179.152C473.799 182.651 472.86 186.747 472.86 191.44V192.72L516.252 184.528C515.143 179.579 512.668 175.568 508.828 172.496C504.988 169.424 500.38 167.888 495.004 167.888ZM672.138 158.16V226H660.362V215.248C657.631 219.003 654.175 221.861 649.994 223.824C645.813 225.787 641.205 226.768 636.17 226.768C629.599 226.768 623.711 225.317 618.506 222.416C613.301 219.515 609.205 215.461 606.218 210.256C603.317 204.965 601.866 198.907 601.866 192.08C601.866 185.253 603.317 179.237 606.218 174.032C609.205 168.827 613.301 164.773 618.506 161.872C623.711 158.971 629.599 157.52 636.17 157.52C641.034 157.52 645.514 158.459 649.61 160.336C653.706 162.128 657.119 164.816 659.85 168.4V158.16H672.138ZM637.194 216.016C641.461 216.016 645.343 215.035 648.842 213.072C652.341 211.024 655.071 208.208 657.034 204.624C658.997 200.955 659.978 196.773 659.978 192.08C659.978 187.387 658.997 183.248 657.034 179.664C655.071 175.995 652.341 173.179 648.842 171.216C645.343 169.253 641.461 168.272 637.194 168.272C632.842 168.272 628.917 169.253 625.418 171.216C622.005 173.179 619.274 175.995 617.226 179.664C615.263 183.248 614.282 187.387 614.282 192.08C614.282 196.773 615.263 200.955 617.226 204.624C619.274 208.208 622.005 211.024 625.418 213.072C628.917 215.035 632.842 216.016 637.194 216.016Z" fill="#3B7D72"/>
<line x1="592.12" y1="144.409" x2="544.534" y2="221.662" stroke="#26AD9F" stroke-width="13"/>
<circle cx="604" cy="127" r="17" fill="#D1AD52"/>
</svg>
